<svg xmlns="http://www.w3.org/2000/svg" width="32" height="32" viewBox="0 0 32 32" fill="none">
  <defs>
    <linearGradient id="aiGradient" x1="0%" y1="0%" x2="100%" y2="100%">
      <stop offset="0%" style="stop-color:#3b82f6;stop-opacity:1" />
      <stop offset="50%" style="stop-color:#1d4ed8;stop-opacity:1" />
      <stop offset="100%" style="stop-color:#1e40af;stop-opacity:1" />
    </linearGradient>
    <linearGradient id="watermarkGradient" x1="0%" y1="0%" x2="100%" y2="100%">
      <stop offset="0%" style="stop-color:#f59e0b;stop-opacity:1" />
      <stop offset="100%" style="stop-color:#d97706;stop-opacity:1" />
    </linearGradient>
  </defs>
  
  <!-- 背景圆形 -->
  <circle cx="16" cy="16" r="15" fill="url(#aiGradient)" stroke="#ffffff" stroke-width="1"/>
  
  <!-- AI 大脑图标 -->
  <path d="M12 8c-2 0-3.5 1.5-3.5 3.5 0 1 .5 1.8 1.2 2.3-.3.8-.5 1.6-.5 2.5 0 3 2.5 5.5 5.5 5.5s5.5-2.5 5.5-5.5c0-.9-.2-1.7-.5-2.5.7-.5 1.2-1.3 1.2-2.3C21.5 9.5 20 8 18 8c-1 0-1.8.5-2.3 1.2-.5-.7-1.3-1.2-2.3-1.2z" fill="#ffffff" opacity="0.9"/>
  
  <!-- 水印文字效果 -->
  <rect x="6" y="20" width="20" height="2" rx="1" fill="url(#watermarkGradient)" opacity="0.8"/>
  <rect x="8" y="23" width="16" height="1.5" rx="0.75" fill="url(#watermarkGradient)" opacity="0.6"/>
  <rect x="10" y="25" width="12" height="1" rx="0.5" fill="url(#watermarkGradient)" opacity="0.4"/>
  
  <!-- 装饰性光点 -->
  <circle cx="10" cy="10" r="1" fill="#ffffff" opacity="0.6"/>
  <circle cx="22" cy="12" r="0.8" fill="#ffffff" opacity="0.5"/>
  <circle cx="8" cy="18" r="0.6" fill="#ffffff" opacity="0.4"/>
</svg>